<svg width="985" height="216" viewBox="0 0 985 216" fill="none" xmlns="http://www.w3.org/2000/svg">
<path d="M269.736 186.174C274.111 192.493 278.346 198.474 282.388 204.584C283.588 206.398 286.131 208.15 284.757 210.642C283.527 212.873 280.826 211.944 278.757 211.947C238.437 212.003 181.188 168.493 140.868 168.5C106.898 168.506 89.8555 211.838 55.8873 212.095C39.2345 212.221 22.5875 213.016 5.94008 211.978C4.02291 211.859 1.72561 212.614 0.486653 210.462C-0.863964 208.115 0.90505 206.347 2.05513 204.585C27.5318 165.535 53.0736 126.529 78.5072 87.4517C95.7628 60.9396 112.871 34.3315 130.05 7.76905C130.863 6.51172 131.647 5.22602 132.565 4.04789C136.658 -1.20184 141.339 -1.44479 145.33 3.90265C150.805 11.2377 155.901 18.8592 161.054 26.4298C197.226 79.5713 233.37 132.731 269.736 186.174ZM115.258 132.912C112.385 141.411 108.458 149.583 106.135 159.47C111.414 157.198 114.682 154.37 117.791 151.532C127.935 142.271 138.732 135.739 153.14 141.204C154.04 141.546 155.122 141.382 156.109 141.526C157.4 141.714 158.825 142.372 159.649 140.773C160.354 139.406 159.625 138.167 158.9 137.046C155.917 132.432 153.195 127.606 149.813 123.302C144.864 117.004 142.408 110.599 145.684 102.655C146.861 99.8013 146.747 96.4437 147.595 93.4207C150.61 82.6769 149.963 72.2553 146.294 61.689C143.854 54.6617 142.61 47.2173 140.868 39.9508C140.503 38.4292 140.357 36.8393 138.687 35.4198C113.919 73.7795 89.3621 111.813 64.8051 149.846C65.1515 150.125 65.4979 150.404 65.8443 150.684C76.3596 142.551 86.8618 134.401 97.3968 126.294C101.634 123.033 106.072 120.067 111.334 118.707C116.628 117.337 119.099 119.791 117.728 125.019C117.095 127.429 116.252 129.784 115.258 132.912Z" fill="black"/>
<path d="M115.258 132.912C112.385 141.411 108.458 149.583 106.135 159.47C111.414 157.198 114.682 154.37 117.791 151.532C127.935 142.271 138.732 135.739 153.14 141.204C154.04 141.546 155.122 141.382 156.109 141.526C157.4 141.714 158.825 142.372 159.649 140.773C160.354 139.406 159.625 138.167 158.9 137.046C155.917 132.432 153.195 127.606 149.813 123.302C144.864 117.004 142.408 110.599 145.684 102.655C146.861 99.8013 146.747 96.4437 147.595 93.4207C150.61 82.6769 149.963 72.2553 146.294 61.689C143.854 54.6617 142.61 47.2173 140.868 39.9508C140.503 38.4292 140.357 36.8393 138.687 35.4198L64.8051 149.846L65.8443 150.684C76.3596 142.551 86.8618 134.401 97.3968 126.294C101.634 123.033 106.072 120.067 111.334 118.707C116.628 117.337 119.099 119.791 117.728 125.019C117.095 127.429 116.252 129.784 115.258 132.912Z" fill="#FDFDFD"/>
<path d="M741.314 212.981C724.675 212.973 708.513 212.987 692.351 212.929C689.812 212.92 686.697 213.657 686.237 209.638C685.825 206.044 686.314 203.484 690.624 202.133C699.516 199.347 701.267 196.519 701.269 187.179C701.274 156.022 701.249 124.865 701.207 93.7086C701.193 83.7347 700.619 82.986 690.915 79.8464C687.293 78.6746 688.359 75.68 688.197 73.1634C688.025 70.4915 689.671 69.6469 691.967 69.6931C718.235 70.2216 744.668 66.7625 770.736 71.4423C787.901 74.5239 802.164 82.5589 807.158 101.222C811.906 118.967 803.564 141.778 783.242 147.92C782.161 148.247 781.173 148.881 780.277 149.308C779.72 151.403 780.8 152.825 781.662 154.165C789.855 166.902 797.261 180.152 806.615 192.135C810.425 197.016 814.802 200.958 821.011 202.201C825.65 203.13 824.745 206.587 824.745 209.64C824.746 213.096 822.155 212.989 819.784 212.967C811.81 212.892 803.842 213.532 795.867 212.342C784.723 210.679 777.069 204.223 771.549 194.989C764.886 183.846 758.208 172.7 752.406 161.062C749.697 155.63 740.053 152.581 734.541 155.239C732.82 156.069 732.835 157.556 732.834 159.049C732.826 169.379 732.738 179.711 732.895 190.039C732.996 196.624 736.975 200.486 742.956 202.125C747.121 203.267 747.274 205.868 747.023 209.346C746.757 213.035 744.414 213.045 741.314 212.981ZM752.564 141.251C758.031 140.851 762.949 139.142 766.974 135.263C776.62 125.966 778.699 105.465 770.972 94.5487C767.075 89.0425 761.778 85.2463 755.094 84.1473C749.195 83.1774 743.172 83.3507 737.18 83.7106C734.069 83.8975 732.805 85.2643 732.821 88.4111C732.902 104.551 732.923 120.692 732.81 136.831C732.785 140.432 734.422 141.487 737.674 141.39C742.33 141.251 746.991 141.296 752.564 141.251Z" fill="black"/>
<path d="M631.186 189.28C639.618 180.974 640.751 170.358 640.998 159.909C641.486 139.262 641.272 118.594 641.088 97.9375C641.015 89.8081 639.455 82.2994 630.065 79.3202C626.999 78.3472 627.154 75.1084 627.499 72.4191C627.863 69.5757 630.148 69.3296 632.411 69.3409C643.906 69.3986 655.401 69.4579 666.895 69.5748C669.327 69.5995 671.752 69.9541 671.779 73.2189C671.802 75.9528 672.771 79.553 668.977 80.3204C658.958 82.3469 658.021 90.0169 657.935 97.863C657.71 118.352 657.793 138.846 657.872 159.338C657.897 165.853 657.584 172.356 656.261 178.695C652.722 195.661 641.457 205.923 625.78 211.442C609.814 217.062 593.386 217.175 577.16 212.478C554.631 205.955 542.345 189.497 542.199 166.002C542.05 141.846 542.164 117.688 542.154 93.5308C542.15 83.5274 541.692 82.7437 532.349 79.7598C528.801 78.6268 529.185 76.0616 529.163 73.385C529.139 70.4172 531.102 69.6631 533.418 69.6532C550.243 69.582 567.068 69.5771 583.893 69.6069C586.118 69.6109 587.793 70.5329 587.791 73.1428C587.789 75.605 588.239 77.9505 584.834 79.0984C575.702 82.1771 573.867 84.7866 573.822 94.3689C573.711 117.856 573.489 141.346 573.794 164.829C573.959 177.62 577.837 189.307 590.617 194.776C604.749 200.823 618.579 199.605 631.186 189.28Z" fill="black"/>
<path d="M918.594 69.9479C924.865 82.1419 928.962 94.8283 933.742 107.232C943.43 132.371 952.789 157.637 962.318 182.838C965.783 192.003 970.178 200.174 981.266 201.986C985.27 202.64 984.711 206.336 984.701 209.285C984.689 212.486 982.451 212.942 979.888 212.94C962.226 212.928 944.564 212.904 926.902 212.959C923.874 212.968 922.205 211.976 922.151 208.687C922.099 205.451 922.217 202.846 926.47 202.283C933.705 201.327 935.503 198.345 933.173 191.248C931.099 184.932 928.516 178.785 926.326 172.504C925.399 169.845 923.767 169.011 921.062 169.028C908.581 169.111 896.096 169.178 883.618 168.949C879.8 168.878 877.915 170.185 876.818 173.812C874.991 179.851 872.476 185.684 870.704 191.736C869.043 197.406 871.979 201.524 877.725 202.368C880.843 202.827 884.212 202.652 883.85 207.542C883.513 212.101 880.708 212.931 877.036 212.936C864.873 212.954 852.709 212.949 840.546 212.974C837.84 212.979 835.425 212.624 835.243 209.183C835.066 205.836 834.531 202.19 839.242 201.43C847.684 200.068 852.092 194.457 854.87 186.981C864.951 159.846 875.044 132.716 885.169 105.597C889.127 94.9977 893.275 84.4687 897.135 73.8342C898.348 70.4908 900.193 69.0811 903.792 69.3364C908.595 69.6772 913.427 69.6008 918.594 69.9479ZM892.204 132.641C889.502 139.907 886.8 147.173 883.963 154.804C896.042 154.804 907.396 154.804 919.829 154.804C914.036 139.121 908.526 124.202 903.016 109.283C902.434 109.303 901.852 109.322 901.269 109.341C898.351 116.872 895.433 124.402 892.204 132.641Z" fill="black"/>
<path d="M441.509 69.5412C464.509 69.5171 487.008 69.4886 509.507 69.4771C516.689 69.4735 516.694 69.572 516.897 76.703C517.134 85.0243 517.549 93.3404 517.811 101.661C517.886 104.012 517.951 106.468 514.625 106.894C511.703 107.268 510.582 105.659 509.602 103.212C503.905 88.9975 489.52 81.591 474.643 85.0075C472.932 85.4004 471.969 86.2326 471.914 88.0042C471.882 89.0035 471.863 90.0035 471.862 91.0032C471.821 122.836 471.756 154.669 471.761 186.502C471.763 198.151 472.191 198.647 483.691 201.426C487.317 202.301 487.85 204.808 487.598 207.889C487.36 210.794 486.584 213.001 482.899 212.982C465.567 212.891 448.233 212.915 430.9 212.951C428.363 212.957 426.658 212.118 426.413 209.419C426.172 206.757 425.654 203.736 429.195 202.844C438.322 200.544 440.215 193.88 440.196 185.682C440.123 154.349 440.175 123.015 440.173 91.6822C440.173 84.9601 440.149 85.1774 433.588 84.8972C419.123 84.2794 408.916 90.4898 402.937 103.585C401.638 106.429 399.798 107.882 396.746 107.288C393.418 106.641 394.066 103.804 394.216 101.631C394.837 92.6758 395.644 83.7332 396.402 74.7874C396.666 71.6647 398.107 70.1983 401.537 70.1809C414.695 70.1139 427.852 69.7785 441.509 69.5412Z" fill="black"/>
<path d="M302.156 79.8873C298.234 78.2175 298.918 75.0987 299.474 72.4439C300.081 69.539 302.861 70.2931 304.905 70.2864C320.066 70.2366 335.227 70.2627 350.388 70.2609C353.135 70.2605 355.806 70.0891 355.884 74.1512C355.952 77.6454 355.197 79.6069 351.144 80.1725C345.223 80.999 342.954 84.4888 342.887 91.8782C342.773 104.539 342.838 117.201 342.838 129.863C342.838 149.522 342.841 169.181 342.853 188.84C342.857 195.314 342.87 195.322 349.549 195.338C355.547 195.353 361.544 195.318 367.542 195.357C380.28 195.439 389.447 189.596 395.454 178.547C396.883 175.917 398.316 173.262 399.413 170.487C400.793 166.995 403.492 166.834 406.383 167.487C409.661 168.228 409.014 171.027 408.599 173.209C406.428 184.628 404.096 196.017 401.819 207.416C400.92 211.918 397.805 213.004 393.689 212.995C369.032 212.94 344.375 212.971 319.718 212.972C314.72 212.972 309.722 212.995 304.724 212.953C302.588 212.936 299.986 213.263 299.658 210.257C299.345 207.388 298.385 203.691 302.111 202.44C310.735 199.543 312.28 193.133 312.232 185.107C312.049 154.787 312.181 124.465 312.143 94.1433C312.131 85.1975 310.382 82.739 302.156 79.8873Z" fill="black"/>
</svg>
